# xmcd
#
# Track frame offsets:
#	150
#	18228
#	36224
#	55784
#	69488
#	86253
#	107072
#	122248
#	142129
#	161478
#	174948
#	191303
#	206843
#	220469
#	233559
#	248244
#	268234
#
# Disc length: 3794 seconds
#
# Revision: 2
# Processed by: cddbd v1.5.2PL0 Copyright (c) Steve Scherf et al.
# Submitted via: audiograbber 1.83.01
#
DISCID=f00ed011
DTITLE=Charlie Landsborough - Under Blue Skies [Disc 1]
DYEAR=2008
DGENRE=Country
TTITLE0=Speak To Me Darling
TTITLE1=Your Love Is Beautiful
TTITLE2=Speed Of The Sound Of Loneliness
TTITLE3=Here, There And Everywhere
TTITLE4=Long Way Down
TTITLE5=Fog On The River
TTITLE6=Bullet In Your Gun
TTITLE7=I Can't Make You Love Me
TTITLE8=Early Morning Rain
TTITLE9=Some Mother's Son 
TTITLE10=Broken
TTITLE11=Long Way To Go
TTITLE12=Moon River
TTITLE13=Good For My Heart
TTITLE14=Growing Old
TTITLE15=Cotton Jenny
TTITLE16=You Don't Know Me
EXTD=YEAR: 2008
EXTT0=
EXTT1=
EXTT2=
EXTT3=
EXTT4=
EXTT5=
EXTT6=
EXTT7=
EXTT8=
EXTT9=
EXTT10=
EXTT11=
EXTT12=
EXTT13=
EXTT14=
EXTT15=
EXTT16=
PLAYORDER=
